<?xml version="1.0" encoding="UTF-8"?>
<svg width="23px" height="28px" viewBox="0 0 23 28" version="1.1" xmlns="http://www.w3.org/2000/svg" xmlns:xlink="http://www.w3.org/1999/xlink">
    <!-- Generator: Sketch 49.1 (51147) - http://www.bohemiancoding.com/sketch -->
    <title>网盘logo</title>
    <desc>Created with Sketch.</desc>
    <defs></defs>
    <g id="最终效果图" stroke="none" stroke-width="1" fill="none" fill-rule="evenodd">
        <g id="Group-3" transform="translate(11.506145, 14.363458) scale(-1, 1) translate(-11.506145, -14.363458) translate(0.402697, 0.363458)" fill="#FFFFFF">
            <path d="M15.7361281,14.5203489 C15.7922391,14.345923 15.8614548,14.1882527 15.943775,14.0473382 C16.8589268,12.4807956 18.1360907,11.1501522 18.1360907,9.58765686 C18.1360907,8.01255292 16.9367374,6.78254171 16.1069694,5.45910466 C15.7592692,4.95013207 15.5559368,4.33470415 15.5559368,3.67178541 C15.5559368,3.6556414 15.5560574,3.63952555 15.5562977,3.62343872 C15.5561772,3.62222978 15.5560569,3.62102027 15.5559368,3.61981018 C15.5841122,1.8917062 16.9936328,0.499371618 18.7283506,0.499371618 C20.4630683,0.499371618 21.8725889,1.8917062 21.9003472,3.61981018 C21.9006453,3.62109063 21.9005261,3.62237049 21.9004066,3.62364976 C21.9006448,3.6396665 21.9007644,3.65571199 21.9007644,3.67178541 C21.9007644,4.15365842 21.793328,4.61043833 21.6011022,5.01947831 C21.5674089,5.09891203 21.531285,5.17155628 21.4927303,5.23741107 C20.6022717,6.7583948 19.3884621,8.14862889 19.3884621,9.74541642 C19.3884621,11.228948 20.3875033,12.3005736 21.2684221,13.6759946 C21.3932496,13.8425271 21.5020829,14.021739 21.5926427,14.2113512 C21.6846512,14.381878 21.756094,14.5807933 21.806971,14.8080972 C21.8682427,15.0542544 21.9007644,15.3117792 21.9007644,15.5768999 C21.9007644,15.6010013 21.9004956,15.62504 21.8999609,15.649013 C21.9015137,15.7212424 21.9017815,15.7952457 21.9007644,15.8710227 L21.8873108,15.8710227 C21.738916,17.4852109 20.3812568,18.7493137 18.7283506,18.7493137 C17.0754443,18.7493137 15.7177851,17.4852109 15.5693903,15.8710227 L15.5559368,15.8710227 C15.5559368,15.8121865 15.5566854,15.7543075 15.5581825,15.6973856 C15.5566898,15.6574084 15.5559368,15.6172421 15.5559368,15.5768999 C15.5559368,15.2064569 15.6194302,14.8508435 15.7361281,14.5203489 Z M7.78573908,18.5614363 C7.84185012,18.3870104 7.91106578,18.2293401 7.99338605,18.0884256 C8.90853785,16.521883 10.1857017,15.1912396 10.1857017,13.6287443 C10.1857017,12.0536403 8.98634839,10.8236291 8.15658043,9.50019205 C7.80888018,8.99121947 7.60554779,8.37579155 7.60554779,7.71287281 C7.60554779,7.69672879 7.60566838,7.68061294 7.60590871,7.66452611 C7.60578825,7.66331718 7.60566795,7.66210766 7.60554779,7.66089758 C7.63372322,5.93279359 9.04324382,4.54045901 10.7779616,4.54045901 C12.5126794,4.54045901 13.9222,5.93279359 13.9499582,7.66089758 C13.9502563,7.66217802 13.9501371,7.66345788 13.9500176,7.66473716 C13.9502558,7.68075389 13.9503754,7.69679939 13.9503754,7.71287281 C13.9503754,8.19474582 13.8429391,8.65152573 13.6507132,9.0605657 C13.6170199,9.13999942 13.580896,9.21264368 13.5423414,9.27849846 C12.6518827,10.7994822 11.4380731,12.1897163 11.4380731,13.7865038 C11.4380731,15.2700354 12.4371143,16.341661 13.3180331,17.717082 C13.4428606,17.8836145 13.5516939,18.0628264 13.6422537,18.2524386 C13.7342623,18.4229653 13.805705,18.6218807 13.856582,18.8491846 C13.9178537,19.0953418 13.9503754,19.3528666 13.9503754,19.6179873 C13.9503754,19.6420887 13.9501066,19.6661274 13.9495719,19.6901004 C13.9511247,19.7623298 13.9513926,19.836333 13.9503754,19.9121101 L13.9369218,19.9121101 C13.7885271,21.5262983 12.4308678,22.7904011 10.7779616,22.7904011 C9.12505533,22.7904011 7.76739611,21.5262983 7.61900136,19.9121101 L7.60554779,19.9121101 C7.60554779,19.8532739 7.60629638,19.7953949 7.60779356,19.738473 C7.60630081,19.6984958 7.60554779,19.6583295 7.60554779,19.6179873 C7.60554779,19.2475443 7.66904123,18.8919309 7.78573908,18.5614363 Z M18.7286525,27.073636 C16.9765768,27.073636 15.5562387,25.653298 15.5562387,23.9012222 C15.5562387,22.1491465 16.9765768,20.7288084 18.7286525,20.7288084 C20.4807283,20.7288084 21.9010663,22.1491465 21.9010663,23.9012222 C21.9010663,25.653298 20.4807283,27.073636 18.7286525,27.073636 Z M3.17241379,16.8378438 C1.42033804,16.8378438 8.8817842e-16,15.4175058 8.8817842e-16,13.6654301 C8.8817842e-16,11.9133543 1.42033804,10.4930163 3.17241379,10.4930163 C4.92448955,10.4930163 6.34482759,11.9133543 6.34482759,13.6654301 C6.34482759,15.4175058 4.92448955,16.8378438 3.17241379,16.8378438 Z" id="Combined-Shape"></path>
        </g>
    </g>
</svg>